HIERARCHY
ROOT hip
{
	OFFSET 0.000000 0.000000 0.000000 
	CHANNELS 6 Xposition Yposition Zposition Xrotation Zrotation Yrotation
	JOINT abdomen
	{
		OFFSET 0.000000 3.402643 0.000000 
		CHANNELS 3 Xrotation Zrotation Yrotation
		JOINT chest
		{
			OFFSET 0.000000 8.438565 -0.680529 
			CHANNELS 3 Xrotation Zrotation Yrotation
			JOINT neck
			{
				OFFSET 0.000000 10.207942 -0.272212 
				CHANNELS 3 Xrotation Zrotation Yrotation
				JOINT head
				{
					OFFSET 0.000000 3.130431 0.000000 
					CHANNELS 3 Xrotation Zrotation Yrotation
					End Site
					{
						OFFSET 0.000000 3.130435 0.000000 
					}
				}
			}
			JOINT lCollar
			{
				OFFSET 3.470700 6.669187 -0.816635 
				CHANNELS 3 Yrotation Zrotation Xrotation
				JOINT lShldr
				{
					OFFSET 3.198488 0.000000 0.000000 
					CHANNELS 3 Zrotation Yrotation Xrotation
					JOINT lForeArm
					{
						OFFSET 10.139888 0.000000 0.000000 
						CHANNELS 3 Yrotation Zrotation Xrotation
						JOINT lHand
						{
							OFFSET 8.370511 0.000000 0.000000 
							CHANNELS 3 Zrotation Yrotation Xrotation
							End Site
							{
								OFFSET 4.083176 0.000000 0.000000 
							}
						}
					}
				}
			}
			JOINT rCollar
			{
				OFFSET -3.470700 6.669187 -0.816635 
				CHANNELS 3 Yrotation Zrotation Xrotation
				JOINT rShldr
				{
					OFFSET -3.198488 0.000000 0.000000 
					CHANNELS 3 Zrotation Yrotation Xrotation
					JOINT rForeArm
					{
						OFFSET -10.139888 0.000000 0.000000 
						CHANNELS 3 Yrotation Zrotation Xrotation
						JOINT rHand
						{
							OFFSET -8.370511 0.000000 0.000000 
							CHANNELS 3 Zrotation Yrotation Xrotation
							End Site
							{
								OFFSET -4.083176 0.000000 0.000000 
							}
						}
					}
				}
			}
		}
	}
	JOINT lThigh
	{
		OFFSET 5.308129 -1.633274 1.361059 
		CHANNELS 3 Xrotation Zrotation Yrotation
		JOINT lShin
		{
			OFFSET -2.041588 -20.007561 0.000000 
			CHANNELS 3 Xrotation Zrotation Yrotation
			JOINT lFoot
			{
				OFFSET 0.000000 -19.190928 -1.224953 
				CHANNELS 3 Xrotation Yrotation Zrotation
				End Site
				{
					OFFSET 0.000000 -2.449906 4.627600 
				}
			}
		}
	}
	JOINT rThigh
	{
		OFFSET -5.308129 -1.633274 1.361059 
		CHANNELS 3 Xrotation Zrotation Yrotation
		JOINT rShin
		{
			OFFSET 2.041588 -20.007561 0.000000 
			CHANNELS 3 Xrotation Zrotation Yrotation
			JOINT rFoot
			{
				OFFSET 0.000000 -19.190928 -1.224953 
				CHANNELS 3 Xrotation Yrotation Zrotation
				End Site
				{
					OFFSET 0.000000 -2.449906 4.627600 
				}
			}
		}
	}
}
MOTION
Frames: 14
Frame Time: 0.016667
57.515980 52.270100 -93.748634 160.605484 176.015625 2.295600 23.652342 -3.144531 1.044922 -7.958984 -0.517578 -0.312588 51.064453 8.115234 2.472081 -43.994141 3.105469 -4.892049 8.642578 30.000000 -0.444336 -120.136719 17.275391 -3.229520 -57.949219 -1.240234 -2.138460 14.072266 61.132809 11.132812 -2.597656 -30.000000 2.851563 106.669922 -20.273438 9.687500 62.158203 1.376953 -2.402578 -29.072266 -59.218750 27.216797 -27.098127 7.811791 13.601042 27.447206 -4.732222 -2.541432 -21.400152 16.199635 3.658743 -25.377459 -5.067098 -15.634390 25.146603 4.670577 2.290218 -1.920985 -25.436247 10.249921 
56.861023 52.285854 -93.571922 160.253922 175.859375 2.031955 24.179686 -3.066406 0.839844 -7.958984 -0.517578 -0.312588 51.064453 8.115234 2.472081 -45.253906 2.861328 -4.453126 8.457032 30.000000 -0.415039 -120.107430 16.923828 -3.525391 -58.662109 -1.523438 -2.275390 13.876953 60.771484 10.897195 -2.500000 -30.000000 3.071291 106.328125 -19.863281 9.394530 62.685551 1.357422 -2.412341 -29.169922 -58.925785 27.071714 -26.951529 7.001007 14.269382 27.278860 -4.629740 -2.679646 -21.933647 15.978459 4.322901 -25.903931 -5.593533 -15.339188 25.497732 4.648371 2.323387 -0.506538 -25.459473 10.195888 
56.205357 52.277977 -93.426468 159.892578 175.859375 2.002658 24.697266 -2.900391 0.878412 -7.783204 -0.507813 -0.322266 51.064453 8.115234 2.472081 -46.318359 2.783203 -3.993666 8.486329 30.000000 -0.454102 -120.078125 16.562500 -3.496093 -59.365231 -1.679688 -2.196980 13.867188 60.566410 10.633506 -2.509766 -30.000000 3.061525 106.132813 -19.511721 9.088537 63.037106 1.347656 -2.431641 -29.101561 -58.496098 26.886209 -26.810371 6.295563 14.414568 26.211416 -4.765910 -2.446490 -21.829300 16.652815 4.907781 -26.607754 -6.345825 -14.646514 25.682268 4.716618 1.847474 0.901846 -25.197140 10.547816 
55.533848 52.254341 -93.322441 159.541016 175.703125 1.748779 25.234377 -2.822266 0.692879 -7.783204 -0.507813 -0.498047 51.064453 8.115234 2.472081 -47.558594 2.714844 -3.710475 8.173828 30.000000 -0.180664 -119.873047 16.171875 -3.385952 -59.707035 -1.357422 -2.441416 13.779296 60.224606 10.712890 -2.509766 -30.000000 3.061525 106.142578 -19.199219 8.492884 63.388672 1.503906 -2.519531 -29.208982 -58.193363 26.739750 -26.845110 5.605162 14.385821 25.301867 -4.794820 -2.385968 -21.723686 16.986794 5.108853 -26.889032 -7.155223 -15.170006 25.680183 4.628127 2.324634 1.774602 -24.488560 10.153362 
54.833073 52.254341 -93.274887 159.189453 175.712891 1.543699 25.761719 -2.812500 0.664062 -7.617188 -0.332031 -0.459041 51.064453 8.115234 2.472081 -48.632813 2.626953 -3.241740 8.203125 30.000000 -0.214844 -119.687492 15.986327 -3.796139 -60.068359 -1.523438 -2.353256 14.599609 60.029297 11.043615 -2.509766 -30.000000 3.051760 106.347656 -18.847656 8.356221 63.916016 1.318359 -2.460938 -29.306641 -57.880859 26.621092 -26.668966 4.716608 14.751335 24.455128 -4.857943 -2.309316 -21.751472 17.022266 5.609408 -27.333448 -7.900506 -15.343035 25.507631 4.646595 2.333532 2.637282 -23.601778 10.480963 
54.165497 52.191315 -93.219910 158.837906 175.566406 1.455833 26.279299 -2.578125 0.546436 -7.617188 -0.332031 -0.459041 51.064453 8.115234 2.472081 -49.873047 2.548828 -2.939453 7.998046 30.000000 -0.166016 -119.482422 15.605471 -4.013672 -60.410156 -1.162109 -2.392380 15.000000 59.902344 11.014308 -2.509766 -30.000000 3.051760 106.337891 -18.535158 8.154296 64.267578 1.308594 -2.470926 -29.208982 -57.666016 26.290577 -26.484140 4.170275 14.845720 23.566097 -4.865863 -2.246516 -22.134743 17.351372 6.023812 -27.440128 -8.583185 -15.215109 25.505215 4.702408 1.849459 3.330262 -22.554417 10.808268 
53.547791 52.151928 -93.173386 158.662109 175.576172 1.260519 26.806641 -2.568359 0.526906 -7.441407 -0.332031 -0.458984 51.064453 8.115234 2.472081 -50.937500 2.460938 -2.666016 7.919922 30.000000 0.014649 -119.287109 15.400392 -4.645843 -60.595703 -1.582031 -2.392578 15.019531 59.482422 10.809195 -2.519531 -30.000000 3.037110 106.347656 -18.164063 7.897347 64.443359 1.298828 -2.470925 -29.306641 -57.363281 26.171875 -26.459211 3.610730 15.128042 22.687174 -4.824347 -2.127058 -21.724087 17.452751 6.222544 -27.858824 -9.295597 -15.576447 25.320753 4.648100 1.968815 4.049719 -21.678793 10.621590 
52.978237 52.128300 -93.122368 158.300797 175.419922 0.996873 27.333982 -2.343750 0.410156 -7.441407 -0.332031 -0.458984 51.064453 8.115234 2.472081 -52.011719 2.373047 -2.177734 7.919922 30.000000 0.014649 -119.462891 15.068360 -5.234375 -61.123047 -1.464844 -2.363281 15.703124 59.697266 11.152343 -2.519531 -30.000000 3.037110 106.171875 -17.958984 7.936443 64.619141 1.298828 -2.470925 -29.863281 -57.548824 26.437073 -26.250166 2.900996 15.254363 21.800224 -4.951058 -2.085404 -21.797586 17.754068 6.731291 -28.069328 -9.907341 -16.273493 25.148970 4.656868 2.287432 4.385247 -20.326185 10.400246 
52.484356 52.088917 -93.109749 157.949234 175.429688 0.967575 27.685547 -2.324219 0.390625 -7.441407 -0.166016 -0.419922 51.064453 8.115234 2.472081 -52.880859 2.451172 -1.855051 7.919922 30.000000 0.014649 -119.638672 14.736329 -5.810546 -61.298832 -1.455078 -2.382813 15.976563 59.462891 11.474610 -2.519531 -30.000000 3.037110 106.162109 -17.958984 8.134767 64.794922 1.289063 -2.490454 -29.443357 -57.333988 26.427324 -26.238848 2.538555 15.331466 21.097088 -4.955043 -2.037119 -21.861713 17.941647 6.916645 -28.118114 -10.512466 -16.811302 24.795570 4.666125 2.085608 5.066980 -19.441484 10.221306 
52.103180 52.041641 -93.162750 157.587906 175.273438 0.694164 27.861328 -2.539063 0.458552 -7.265625 -0.166016 -0.605469 51.064453 8.115234 2.472081 -53.759766 2.519531 -1.728516 8.134766 30.000000 -0.048828 -119.638672 14.736329 -5.810546 -61.464844 -1.298828 -2.324219 15.429686 59.550781 10.849609 -2.519531 -30.000000 3.037110 106.162109 -17.958984 8.134767 64.794922 1.289063 -2.490454 -29.687500 -57.451172 26.603094 -26.220343 2.363339 15.378035 20.564228 -4.915047 -1.976137 -21.861031 17.797493 7.028456 -28.365080 -10.875961 -17.433691 24.444042 4.685738 2.060731 5.563673 -18.654240 10.165707 
51.805901 52.010117 -93.256126 157.236343 175.283203 0.489084 28.037111 -2.597656 0.614792 -7.265625 -0.166016 -0.605469 51.064453 8.115234 2.472081 -54.443356 2.753906 -1.591328 8.271484 30.000000 -0.317383 -119.638672 14.736329 -5.810546 -61.640621 -1.298828 -2.333763 15.478517 59.736328 10.916638 -2.324219 -30.000000 3.066406 106.337891 -18.164063 8.085938 64.794922 1.289063 -2.490454 -29.687500 -57.451172 26.603094 -25.998238 1.979683 15.620943 20.194242 -4.992925 -1.957743 -21.925291 17.768530 6.979322 -28.235966 -11.284122 -18.368649 24.451910 4.701038 2.044316 5.628388 -18.014162 9.089971 
51.589394 51.986492 -93.386314 156.884781 175.146484 0.401217 28.046875 -2.812500 0.702646 -7.265625 -0.332031 -0.820369 51.064453 8.115234 2.472081 -54.941406 3.144531 -1.455078 8.496094 29.999998 -0.390625 -119.638672 14.912109 -5.810546 -62.001949 -1.435547 -2.402099 15.585937 59.775391 11.425781 -2.333985 -30.000000 3.056641 106.523438 -18.183594 8.190312 64.794922 1.455078 -2.558842 -29.599607 -57.753906 26.739790 -26.009459 1.980108 15.438367 19.676205 -5.012131 -1.907779 -22.098619 17.904778 6.940380 -28.173399 -11.396366 -19.057730 23.922791 4.706268 2.021539 5.457458 -17.497183 8.730144 
51.422409 51.954983 -93.518929 156.523438 175.156250 0.186371 28.046875 -3.017578 0.790502 -7.265625 -0.332031 -0.820369 51.064453 8.115234 2.472081 -55.283203 3.349610 -1.493570 8.740234 30.000000 -0.512695 -119.648438 15.097657 -5.136719 -62.167965 -1.103516 -2.450984 15.107421 59.853516 10.917969 -2.226563 -30.000000 3.276369 106.718750 -18.398439 7.763673 64.804688 1.640625 -2.646484 -29.794922 -57.636715 26.730034 -26.183794 1.813282 15.482589 19.322588 -5.010376 -1.907340 -21.862448 17.955559 6.925347 -28.130444 -11.510111 -19.375868 23.753302 4.793845 1.548354 5.392937 -16.532261 8.453290 
51.292809 51.891949 -93.658371 156.171875 175.166016 -0.018708 28.046875 -3.017578 0.790502 -7.441407 -0.332031 -0.810547 51.064453 8.115234 2.472081 -55.634766 3.369141 -1.337891 8.740234 30.000000 -0.512695 -119.638672 15.097655 -4.765625 -61.992184 -1.113281 -2.431451 15.156250 59.238285 10.654298 -2.041015 -30.000000 3.295900 106.708984 -18.583982 7.792970 64.794922 1.455078 -2.558842 -29.384768 -57.763676 26.113281 -26.371342 1.990349 15.453680 19.314854 -5.002179 -1.895543 -21.887297 17.654079 6.629438 -28.051292 -11.596664 -20.396282 23.396614 4.804497 1.685724 5.059229 -16.250257 7.525107 
